<svg xmlns="http://www.w3.org/2000/svg" viewBox="0 0 48 48"><defs><style>.cls-1{fill:#dad7e5}.cls-2{fill:#edebf2}.cls-5{fill:#425b72}.cls-8{fill:#374f68}</style></defs><g id="_37._Online_Learning" data-name="37. Online Learning"><path class="cls-1" d="M1 30h46v4a2 2 0 0 1-2 2H3a2 2 0 0 1-2-2v-4z"/><path class="cls-2" d="M47 30v4H8a4 4 0 0 1-4-4z"/><path d="M3 2h42a2 2 0 0 1 2 2v26H1V4a2 2 0 0 1 2-2z" style="fill:#9fdbf3"/><path d="M47 4v24H30A26 26 0 0 1 4 2h41a2 2 0 0 1 2 2z" style="fill:#b2e5fb"/><path class="cls-5" d="M24 34a1 1 0 1 1 .71-1.71A1 1 0 0 1 24 34z"/><path class="cls-1" d="M28 42h-8l1.33-6h5.34L28 42zM17 42h14a1 1 0 0 1 1 1v3H16v-3a1 1 0 0 1 1-1z"/><path class="cls-2" d="M39 25H17a1 1 0 0 1 0-2h22a1 1 0 0 1 0 2z"/><path d="M20 25v-2a1 1 0 0 1 2 0v2a1 1 0 0 1-2 0z" style="fill:#919191"/><path style="fill:#db5669" d="M9 26v-4l4 2-4 2z"/><path class="cls-8" d="M29 12.33V17a1 1 0 0 1-1 1h-8a1 1 0 0 1-1-1v-4.67L24 14z"/><path class="cls-5" d="M29 12.33V16h-7a1 1 0 0 1-1-1v-2l3 1z"/><path d="M17 15a1 1 0 0 1-2 0c0-3.41 0-3.92.07-4 2.2-.75 1.93-1.19 1.93 4z" style="fill:#ffde76"/><path class="cls-2" d="M27.56 40H26.1a3.29 3.29 0 0 1-3.21-4h3.78zM32 43v1H20a2 2 0 0 1-2-2h13a1 1 0 0 1 1 1z"/><path style="fill:#f26674" d="M12 23.5 9 25v-3l3 1.5z"/><path class="cls-8" d="m33 11-9 3-9-3c.15 0 1.81-.6 9-3z"/><path class="cls-5" d="m30 10-6 2-6-2 6-2z"/></g></svg>